<svg width="160" height="160" viewBox="0 0 160 160" fill="none" xmlns="http://www.w3.org/2000/svg">
<path d="M64.4299 30.8195C64.4299 26.3075 60.7382 22.6158 56.2262 22.6158C51.7141 22.6158 48.0225 26.3075 48.0225 30.8195C48.0225 34.101 44.0437 35.7418 41.7056 33.4447L41.5005 33.2396C38.3011 30.0402 33.0917 30.0402 29.8923 33.2396C26.6929 36.4391 26.6929 41.6484 29.8923 44.8479L30.0974 45.053C32.4354 47.35 30.7947 51.3288 27.5132 51.3288C23.0012 51.3288 19.3095 55.0205 19.3095 59.5325C19.3095 64.0446 23.0012 67.7362 27.5132 67.7362H64.4299V30.8195Z" fill="#F8312F"/>
<g opacity="0.5" filter="url(#filter0_f_4_297)">
<path d="M93.4474 43.0107C96.4322 42.9972 99.1928 44.591 100.674 47.1828C104.743 54.3 112.946 68.6572 116.99 75.7318C118.451 78.2886 118.444 81.4311 116.972 83.9816L100.324 112.816C98.8519 115.366 96.1338 116.943 93.1892 116.957C85.0402 116.992 68.5048 117.066 60.3066 117.1C57.3217 117.114 54.5611 115.52 53.0804 112.928C49.0114 105.811 40.8078 91.454 36.7636 84.3793C35.3027 81.8226 35.3096 78.6801 36.7822 76.1296L53.4295 47.2955C54.9021 44.745 57.6201 43.1677 60.5648 43.1545C68.7137 43.1195 85.2492 43.0455 93.4474 43.0107Z" fill="#FCD53F"/>
</g>
<path d="M93.4474 43.0107C96.4322 42.9972 99.1928 44.591 100.674 47.1828C104.743 54.3 112.946 68.6572 116.99 75.7318C118.451 78.2886 118.444 81.4311 116.972 83.9816L100.324 112.816C98.8519 115.366 96.1338 116.943 93.1892 116.957C85.0402 116.992 68.5048 117.066 60.3066 117.1C57.3217 117.114 54.5611 115.52 53.0804 112.928C49.0114 105.811 40.8078 91.454 36.7636 84.3793C35.3027 81.8226 35.3096 78.6801 36.7822 76.1296L53.4295 47.2955C54.9021 44.745 57.6201 43.1677 60.5648 43.1545C68.7137 43.1195 85.2492 43.0455 93.4474 43.0107Z" fill="#FCD53F"/>
<path d="M84.9424 107.082L62.8349 107.082C61.8658 107.082 60.9706 106.561 60.4931 105.718C57.8675 101.085 49.3095 85.9831 46.7019 81.383C46.2303 80.5517 46.2363 79.5329 46.7158 78.7064C49.3694 74.1311 58.0813 59.1092 60.7408 54.5247C61.2224 53.6948 62.1096 53.1839 63.0687 53.1839C68.3418 53.1839 85.5598 53.1839 90.8529 53.1839C91.818 53.1839 92.7091 53.7016 93.1887 54.5404C95.8103 59.1324 104.334 74.0611 106.942 78.6283C107.417 79.4583 107.415 80.4772 106.938 81.3054C105.591 83.6448 102.948 88.2346 102.948 88.2346" stroke="#F8312F" stroke-width="2.99722" stroke-miterlimit="1.5" stroke-linecap="round" stroke-linejoin="round"/>
<path d="M87.7379 86.3268L78.9013 85.923L78.5793 86.4808L85.3816 90.4081L82.2397 95.8499L60.4724 83.2826L63.6143 77.8408L70.4166 81.7681L70.7598 81.1735L65.9707 73.7594L69.8979 66.9571L77.4065 79.0867L91.6652 79.5245" fill="#F8312F"/>
<path d="M89.0408 129.264C89.0408 133.776 92.7325 137.468 97.2445 137.468C101.757 137.468 105.448 133.776 105.448 129.264C105.448 125.983 109.427 124.342 111.765 126.639L111.97 126.844C115.17 130.043 120.379 130.043 123.578 126.844C126.778 123.644 126.778 118.435 123.578 115.236L123.373 115.031C121.035 112.734 122.676 108.755 125.957 108.755C130.47 108.755 134.161 105.063 134.161 100.551C134.161 96.039 130.47 92.3474 125.957 92.3474H103.397C95.4807 92.3474 89.0408 98.7873 89.0408 106.704V129.264Z" fill="#F8312F"/>
<defs>
<filter id="filter0_f_4_297" x="10.6728" y="18.0107" width="132.408" height="124.09" filterUnits="userSpaceOnUse" color-interpolation-filters="sRGB">
<feFlood flood-opacity="0" result="BackgroundImageFix"/>
<feBlend mode="normal" in="SourceGraphic" in2="BackgroundImageFix" result="shape"/>
<feGaussianBlur stdDeviation="12.5" result="effect1_foregroundBlur_4_297"/>
</filter>
</defs>
</svg>
